<mxfile host="app.diagrams.net" agent="Mozilla/5.0 (Windows NT 10.0; Win64; x64) AppleWebKit/537.36 (KHTML, like Gecko) Chrome/140.0.0.0 Safari/537.36" version="28.2.3">
  <diagram name="Page-1" id="page1">
    <mxGraphModel grid="1" page="1" gridSize="10" guides="1" tooltips="1" connect="1" arrows="1" fold="1" pageScale="1" pageWidth="827" pageHeight="1169" math="0" shadow="0">
      <root>
        <mxCell id="0" />
        <mxCell id="1" parent="0" />
        <mxCell id="2" value="Start" style="ellipse;whiteSpace=wrap;html=1;fillColor=#d5e8d4;strokeColor=#82b366;" parent="1" vertex="1">
          <mxGeometry x="300" y="50" width="80" height="40" as="geometry" />
        </mxCell>
        <mxCell id="4" value="sum = 0, i = 1" style="rounded=0;whiteSpace=wrap;html=1;fillColor=#f8cecc;strokeColor=#b85450;" parent="1" vertex="1">
          <mxGeometry x="280" y="190" width="120" height="40" as="geometry" />
        </mxCell>
        <mxCell id="5" value="i &amp;lt;= N?" style="rhombus;whiteSpace=wrap;html=1;fillColor=#dae8fc;strokeColor=#6c8ebf;" parent="1" vertex="1">
          <mxGeometry x="300" y="260" width="80" height="80" as="geometry" />
        </mxCell>
        <mxCell id="6" value="sum = sum + i" style="rounded=0;whiteSpace=wrap;html=1;fillColor=#f8cecc;strokeColor=#b85450;" parent="1" vertex="1">
          <mxGeometry x="200" y="370" width="120" height="40" as="geometry" />
        </mxCell>
        <mxCell id="7" value="i = i + 1" style="rounded=0;whiteSpace=wrap;html=1;fillColor=#f8cecc;strokeColor=#b85450;" parent="1" vertex="1">
          <mxGeometry x="200" y="440" width="120" height="40" as="geometry" />
        </mxCell>
        <mxCell id="9" value="End" style="ellipse;whiteSpace=wrap;html=1;fillColor=#d5e8d4;strokeColor=#82b366;" parent="1" vertex="1">
          <mxGeometry x="300" y="590" width="80" height="40" as="geometry" />
        </mxCell>
        <mxCell id="10" style="edgeStyle=orthogonalEdgeStyle;rounded=0;orthogonalLoop=1;jettySize=auto;html=1;" parent="1" source="2" edge="1">
          <mxGeometry relative="1" as="geometry">
            <mxPoint x="340" y="120" as="targetPoint" />
          </mxGeometry>
        </mxCell>
        <mxCell id="11" style="edgeStyle=orthogonalEdgeStyle;rounded=0;orthogonalLoop=1;jettySize=auto;html=1;" parent="1" target="4" edge="1">
          <mxGeometry relative="1" as="geometry">
            <mxPoint x="340" y="160" as="sourcePoint" />
          </mxGeometry>
        </mxCell>
        <mxCell id="12" style="edgeStyle=orthogonalEdgeStyle;rounded=0;orthogonalLoop=1;jettySize=auto;html=1;" parent="1" source="4" target="5" edge="1">
          <mxGeometry relative="1" as="geometry" />
        </mxCell>
        <mxCell id="13" value="Yes" style="edgeStyle=orthogonalEdgeStyle;rounded=0;orthogonalLoop=1;jettySize=auto;html=1;exitX=0;exitY=1;exitDx=0;exitDy=0;entryX=0;entryY=0;entryDx=0;entryDy=0;" parent="1" source="5" target="6" edge="1">
          <mxGeometry relative="1" as="geometry" />
        </mxCell>
        <mxCell id="14" style="edgeStyle=orthogonalEdgeStyle;rounded=0;orthogonalLoop=1;jettySize=auto;html=1;" parent="1" source="6" target="7" edge="1">
          <mxGeometry relative="1" as="geometry" />
        </mxCell>
        <mxCell id="16" value="No" style="edgeStyle=orthogonalEdgeStyle;rounded=0;orthogonalLoop=1;jettySize=auto;html=1;exitX=1;exitY=1;exitDx=0;exitDy=0;entryX=0.5;entryY=0;entryDx=0;entryDy=0;" parent="1" source="5" edge="1">
          <mxGeometry relative="1" as="geometry">
            <mxPoint x="340" y="520" as="targetPoint" />
          </mxGeometry>
        </mxCell>
        <mxCell id="17" style="edgeStyle=orthogonalEdgeStyle;rounded=0;orthogonalLoop=1;jettySize=auto;html=1;" parent="1" target="9" edge="1">
          <mxGeometry relative="1" as="geometry">
            <mxPoint x="340" y="560" as="sourcePoint" />
          </mxGeometry>
        </mxCell>
        <mxCell id="BCyEAg3B32RhlU9_gAbu-18" value="" style="endArrow=none;html=1;rounded=0;exitX=1;exitY=0;exitDx=0;exitDy=0;" edge="1" parent="1" source="7">
          <mxGeometry width="50" height="50" relative="1" as="geometry">
            <mxPoint x="390" y="340" as="sourcePoint" />
            <mxPoint x="360" y="390" as="targetPoint" />
            <Array as="points">
              <mxPoint x="320" y="390" />
            </Array>
          </mxGeometry>
        </mxCell>
        <mxCell id="BCyEAg3B32RhlU9_gAbu-19" value="ín sum" style="shape=parallelogram;perimeter=parallelogramPerimeter;whiteSpace=wrap;html=1;fixedSize=1;" vertex="1" parent="1">
          <mxGeometry x="280" y="520" width="120" height="40" as="geometry" />
        </mxCell>
        <mxCell id="BCyEAg3B32RhlU9_gAbu-20" value="nhập số nguyên N" style="shape=parallelogram;perimeter=parallelogramPerimeter;whiteSpace=wrap;html=1;fixedSize=1;" vertex="1" parent="1">
          <mxGeometry x="280" y="120" width="120" height="40" as="geometry" />
        </mxCell>
      </root>
    </mxGraphModel>
  </diagram>
</mxfile>
